<?xml version="1.0" encoding="UTF-8" standalone="no"?><!DOCTYPE svg PUBLIC "-//W3C//DTD SVG 1.1//EN" "http://www.w3.org/Graphics/SVG/1.1/DTD/svg11.dtd"><svg width="96px" height="96px" version="1.1" xmlns="http://www.w3.org/2000/svg" xmlns:xlink="http://www.w3.org/1999/xlink" xml:space="preserve" xmlns:serif="http://www.serif.com/" style="fill-rule:evenodd;clip-rule:evenodd;stroke-linejoin:round;stroke-miterlimit:2;"><g id="ArtBoard1" transform="matrix(0.0333333,0,0,0.0533333,0,0)"><rect x="0" y="0" width="2880" height="1800" style="fill:none;"/><g id="Ebene-1" serif:id="Ebene 1" transform="matrix(7.66667,0,0,4.79167,-93.3333,-58.3333)"><path d="M380,200C380,299.411 299.411,380 200,380C100.589,380 20,299.411 20,200C20,100.589 100.589,20 200,20C299.411,20 380,100.589 380,200" style="fill:rgb(63,169,245);fill-rule:nonzero;"/><path d="M304.102,103.17C287.413,73.086 265.546,70.747 259.242,70.747C254.713,70.747 250.879,71.789 248.445,73.682L240.991,79.476L249.403,83.764C250.52,84.334 251.639,84.875 252.744,85.407C258.297,88.087 261.769,89.901 263.08,93.285C264.909,98.007 263.174,106.679 257.924,119.058C250.325,136.977 241.348,154.706 231.207,171.831C207.405,160.544 179.836,153.841 145.032,150.83C144.747,150.805 144.543,150.801 144.423,150.801L138.98,150.802L138.433,156.192C138.304,157.461 138.333,161.685 144.116,162.871C156.303,165.371 187.041,173.057 218.563,191.941C195.854,226.092 157.572,273.611 99.904,315.602C95.481,318.821 90.607,324.472 95.583,329C97.438,330.688 102.55,328.596 103.449,328.17C156.701,302.922 203.302,262.705 242.044,208.329C255.057,218.834 266.192,230.627 275.199,243.454C278.144,247.648 282.858,250.053 288.133,250.053C294.315,250.053 299.813,246.816 302.138,241.807C304.417,236.898 303.279,231.186 299.013,226.136C285.225,209.814 271.314,196.821 256.633,186.573C278.116,152.466 289.519,124.52 292.98,115.409C293.664,115.462 294.523,115.629 295.296,115.78C296.454,116.006 297.65,116.239 298.868,116.239C302.735,116.239 304.546,113.873 305.146,112.855C307.374,109.07 305.165,105.085 304.102,103.17" style="fill:white;fill-rule:nonzero;"/></g></g></svg>