<?xml version="1.0" encoding="UTF-8" standalone="no"?><!DOCTYPE svg PUBLIC "-//W3C//DTD SVG 1.1//EN"
        "http://www.w3.org/Graphics/SVG/1.1/DTD/svg11.dtd">
<svg width="600px" height="400px" version="1.1" xmlns="http://www.w3.org/2000/svg"
     xmlns:xlink="http://www.w3.org/1999/xlink" xml:space="preserve" xmlns:serif="http://www.serif.com/"
     style="fill-rule:evenodd;clip-rule:evenodd;stroke-linecap:round;stroke-linejoin:round;stroke-miterlimit:1.5;"><g transform="matrix(1,0,0,1,-1100,-1000)"><g id="a-tv2" transform="matrix(1,0,0,1,430,1000)"><rect x="670" y="0" width="600" height="400" style="fill:none;"/><g
        transform="matrix(1,0,0,1,670,0)"><rect x="0" y="0" width="600" height="400" style="fill:rgb(245,245,245);"/></g><g
        transform="matrix(0.75,0,0,0.75,-2883.75,-517.5)"><g><g transform="matrix(1,0,0,1,0.333333,0)"><path d="M5288,808.34C5288,803.737 5284.26,800 5279.66,800L4996.34,800C4991.74,800 4988,803.737 4988,808.34L4988,991.66C4988,996.263 4991.74,1000 4996.34,1000L5279.66,1000C5284.26,1000 5288,996.263 5288,991.66L5288,808.34Z" style="fill:none;stroke:black;stroke-width:5.56px;"/></g><g
        transform="matrix(1,0,0,1,0.333333,0)"><rect x="5108" y="1000" width="60" height="20" style="fill:none;stroke:black;stroke-width:5.56px;"/></g><g
        transform="matrix(1.04,0,0,1,-101.187,-80)"><path d="M5288,1125C5288,1111.2 5277.23,1100 5263.96,1100L4812.04,1100C4798.77,1100 4788,1111.2 4788,1125L4788,1175C4788,1188.8 4798.77,1200 4812.04,1200L5263.96,1200C5277.23,1200 5288,1188.8 5288,1175L5288,1125Z" style="fill:none;stroke:black;stroke-width:5.45px;"/></g><g
        transform="matrix(1,0,0,1,-18.4544,-2.72848e-12)"><path d="M4928,1120L4928,1140" style="fill:none;stroke:black;stroke-width:5.56px;"/></g><g
        transform="matrix(1,0,0,1,20.0707,-6.82121e-13)"><path d="M5348,1120L5348,1140" style="fill:none;stroke:black;stroke-width:5.56px;"/></g><g><g transform="matrix(1,0,0,1.33333,0.333333,-333.333)"><path d="M5368,951.25C5368,945.041 5361.28,940 5353,940L5323,940C5314.72,940 5308,945.041 5308,951.25L5308,988.75C5308,994.959 5314.72,1000 5323,1000L5353,1000C5361.28,1000 5368,994.959 5368,988.75L5368,951.25Z" style="fill:none;stroke:black;stroke-width:4.71px;"/></g>
    <g transform="matrix(1,0,0,1,0.333333,-10)"><circle cx="5338" cy="950" r="10" style="fill:none;stroke:black;stroke-width:5.56px;"/></g>
    <g transform="matrix(1.5,0,0,1.5,-2668.67,-450)"><circle cx="5338" cy="950" r="10" style="fill:none;stroke:black;stroke-width:3.7px;"/></g>
    <g transform="matrix(1,0,0,1,-89.6667,6.82121e-13)"><path d="M5428,1000L5428,1020" style="fill:none;stroke:black;stroke-width:5.56px;"/></g></g><g
        transform="matrix(1,0,0,1,-400,-2.27374e-13)"><g transform="matrix(1,0,0,1.33333,0.333333,-333.333)"><path d="M5368,951.25C5368,945.041 5361.28,940 5353,940L5323,940C5314.72,940 5308,945.041 5308,951.25L5308,988.75C5308,994.959 5314.72,1000 5323,1000L5353,1000C5361.28,1000 5368,994.959 5368,988.75L5368,951.25Z" style="fill:none;stroke:black;stroke-width:4.71px;"/></g>
    <g transform="matrix(1,0,0,1,0.333333,-10)"><circle cx="5338" cy="950" r="10" style="fill:none;stroke:black;stroke-width:5.56px;"/></g>
    <g transform="matrix(1.5,0,0,1.5,-2668.67,-450)"><circle cx="5338" cy="950" r="10" style="fill:none;stroke:black;stroke-width:3.7px;"/></g>
    <g transform="matrix(1,0,0,1,-89.6667,6.82121e-13)"><path d="M5428,1000L5428,1020" style="fill:none;stroke:black;stroke-width:5.56px;"/></g></g><g
        transform="matrix(1,0,0,1,2.52517,-2.84217e-12)"><g transform="matrix(0.75,0,0,0.8,1624.81,240)"><rect x="4388" y="1000" width="20" height="100" style="fill:none;stroke:black;stroke-width:7.16px;stroke-linecap:butt;"/></g>
    <g transform="matrix(0.75,0,0,0.6,1639.81,460)"><rect x="4388" y="1000" width="20" height="100" style="fill:rgb(179,179,179);stroke:black;stroke-width:8.18px;stroke-linecap:butt;"/></g>
    <g transform="matrix(0.75,0,0,0.7,1654.81,350)"><rect x="4388" y="1000" width="20" height="100" style="fill:rgb(204,204,204);stroke:black;stroke-width:7.66px;stroke-linecap:butt;"/></g>
    <g transform="matrix(1,0,0,1,4635.81,484)"><path d="M295,620L310,620" style="fill:none;stroke:black;stroke-width:5.56px;stroke-linecap:butt;"/></g>
    <g transform="matrix(0.710898,-0.239006,0.223072,0.663505,1618.31,1438.9)"><rect x="4388" y="1000" width="20" height="100" style="fill:rgb(230,230,230);stroke:black;stroke-width:7.66px;stroke-linecap:butt;"/></g></g><g
        transform="matrix(1,0,0,1,4633.33,395)"><rect x="285" y="660" width="15" height="8" style="fill:none;stroke:black;stroke-width:5.56px;stroke-linecap:butt;"/></g><g
        transform="matrix(1,0,0,1,4663.33,407)"><rect x="285" y="660" width="15" height="8" style="fill:none;stroke:black;stroke-width:5.56px;stroke-linecap:butt;"/></g><g
        transform="matrix(1,0,0,1,0.262587,-1.36424e-12)"><g transform="matrix(-0.75,0,0,0.6,8642.81,460)"><rect x="4388" y="1000" width="20" height="100" style="fill:none;stroke:black;stroke-width:8.18px;stroke-linecap:butt;"/></g>
    <g transform="matrix(1,0,0,1,4638.07,480)"><path d="M700,595L713.737,595" style="fill:none;stroke:black;stroke-width:5.56px;stroke-linecap:butt;"/></g>
    <g transform="matrix(-0.75,0,0,0.6,8612.81,460)"><rect x="4388" y="1000" width="20" height="100" style="fill:rgb(179,179,179);stroke:black;stroke-width:8.18px;stroke-linecap:butt;"/></g>
    <g transform="matrix(1,0,0,1,5021.81,412)"><rect x="285" y="660" width="15" height="8" style="fill:none;stroke:black;stroke-width:5.56px;stroke-linecap:butt;"/></g>
    <g transform="matrix(-0.75,0,0,0.7,8627.81,350)"><rect x="4388" y="1000" width="20" height="100" style="fill:rgb(230,230,230);stroke:black;stroke-width:7.66px;stroke-linecap:butt;"/></g></g><g
        transform="matrix(0.208333,0,0,0.222222,4758.33,985)"><g transform="matrix(4.8,0,0,4.5,336,-720)"><rect x="400" y="280" width="60" height="15" style="fill:none;stroke:black;stroke-width:5.56px;"/></g>
    <g transform="matrix(4.8,0,0,4.5,384,-787.5)"><rect x="400" y="280" width="60" height="15" style="fill:rgb(204,204,204);stroke:black;stroke-width:5.56px;"/></g>
    <g transform="matrix(4.8,0,0,4.5,336,-855)"><rect x="400" y="280" width="60" height="15" style="fill:none;stroke:black;stroke-width:5.56px;"/></g>
    <g transform="matrix(4.8,0,0,4.5,0,0)"><path d="M485,120L485,135" style="fill:none;stroke:black;stroke-width:5.56px;"/></g>
    <g transform="matrix(9.6,0,0,4.5,-2496,1.13687e-13)"><rect x="520" y="105" width="5" height="15" style="fill:none;stroke:black;stroke-width:3.51px;"/></g>
    <g transform="matrix(4.8,0,0,4.5,0,0)"><path d="M515,90L515,105" style="fill:none;stroke:black;stroke-width:5.56px;"/></g></g><g
        transform="matrix(1,0,0,1,423.737,-180)"><g transform="matrix(1.25,0,0,1,-1146.67,2.27374e-13)"><rect x="4588" y="1240" width="160" height="60" style="fill:none;stroke:black;stroke-width:4.91px;"/></g>
    <g transform="matrix(1,0,0,1,20.3333,0)"><rect x="4628" y="1260" width="80" height="20" style="fill:none;stroke:black;stroke-width:5.56px;"/></g>
    <g transform="matrix(1,0,0,1,0.333333,0)"><circle cx="4618" cy="1270" r="10" style="fill:none;stroke:black;stroke-width:5.56px;"/></g>
    <g transform="matrix(1,0,0,1,0.333333,0)"><circle cx="4758" cy="1270" r="10" style="fill:none;stroke:black;stroke-width:5.56px;"/></g></g></g>
    <g><g transform="matrix(1,0,0,1,0.333333,0)"><rect x="4998" y="810" width="280" height="180" style="fill:rgb(51,51,51);"/></g>
        <g transform="matrix(1,0,0,1,620.333,-170)"><path d="M4488,1040L4488,1100L4548,1070L4488,1040Z" style="fill:none;stroke:white;stroke-width:5.56px;stroke-linecap:butt;"/></g></g></g></g></g>
    <metadata>
  <rdf:RDF xmlns:rdf="http://www.w3.org/1999/02/22-rdf-syntax-ns#" xmlns:schema="http://schema.org/"
           xmlns:dc="http://purl.org/dc/elements/1.1/">
    <rdf:Description rdf:about="https://medienunddesign.wordpress.com/" dc:title="Modern flat illustration"
                     dc:description="Copyright by Merukeru" dc:publisher="Merukeru" dc:format="image/svg+xml">
      <schema:license rdf:resource="https://creativecommons.org/licenses/by-nc-nd/4.0/"/>
    </rdf:Description>
  </rdf:RDF>
</metadata>
</svg>
